<?xml version="1.0" encoding="UTF-8"?>
<svg version="1.1" xmlns="http://www.w3.org/2000/svg" width="218" height="268">
<path d="M0 0 C17.10561784 13.46596435 28.14082074 31.98414332 34.69140625 52.5390625 C35.03300781 53.58707031 35.37460938 54.63507813 35.7265625 55.71484375 C40.11778883 72.11556349 39.51021987 92.31442793 34.69140625 108.5390625 C34.35109375 109.68761719 34.01078125 110.83617187 33.66015625 112.01953125 C24.61693544 139.54636216 5.26777036 160.60987701 -20.3671875 173.6796875 C-29.77338465 178.26261263 -39.92298379 181.28193227 -50.30859375 182.5390625 C-51.94634766 182.74015625 -51.94634766 182.74015625 -53.6171875 182.9453125 C-79.74875208 185.42063832 -105.28910466 178.37092631 -126.30859375 162.5390625 C-127.62923828 161.55679688 -127.62923828 161.55679688 -128.9765625 160.5546875 C-135.79083092 155.25365662 -141.13729725 149.43084738 -146.30859375 142.5390625 C-147.23285156 141.35376953 -147.23285156 141.35376953 -148.17578125 140.14453125 C-164.55395963 118.19777222 -169.20557874 89.81183727 -165.84765625 63.0625 C-162.38849997 44.05748845 -153.77889827 27.18381088 -141.30859375 12.5390625 C-140.67695313 11.71277344 -140.0453125 10.88648438 -139.39453125 10.03515625 C-135.6311512 5.53178574 -130.92495777 2.1281927 -126.30859375 -1.4609375 C-125.51195312 -2.08484375 -124.7153125 -2.70875 -123.89453125 -3.3515625 C-87.00897242 -30.7381647 -35.69751378 -26.99565577 0 0 Z " fill="#AA344C" transform="translate(168.30859375,21.4609375)"/>
<path d="M0 0 C12.67104879 8.15001858 19.74737987 18.72901351 24.33984375 33.0234375 C26.80102982 46.00912398 24.22483806 60.77971298 17 71.875 C15.23026087 75.1490174 15.35723122 77.52165809 15.75 81.1875 C17.44428996 84.99965241 18.89884126 86.67058675 22.75 88.1875 C26.95581532 88.40963813 30.62911598 87.86003041 34.25 85.6875 C36.47403672 81.98077214 37.06509574 78.49124665 36.75 74.1875 C34.77427129 70.47313002 33.39687977 69.44873991 29.5 67.875 C28.5925 67.648125 27.685 67.42125 26.75 67.1875 C26.75 66.5275 26.75 65.8675 26.75 65.1875 C30.41430014 62.84234791 33.47175983 62.81868619 37.75 63.1875 C41.66845896 64.54388964 43.31565683 65.53598525 45.625 69 C46.78883662 72.2975371 46.99764915 74.72041185 46.75 78.1875 C47.801875 78.22875 48.85375 78.27 49.9375 78.3125 C53.80439375 79.19998381 55.52132883 80.09026887 57.87109375 83.30859375 C59.54036838 86.87713196 59.41075656 90.36354713 58.75 94.1875 C57.375 97.25 57.375 97.25 55.75 99.1875 C55.09 99.1875 54.43 99.1875 53.75 99.1875 C53.37875 97.3003125 53.37875 97.3003125 53 95.375 C52.3252662 92.78163538 51.85392846 91.32052842 50.1875 89.1875 C46.26285441 87.57738899 42.90848948 87.25368734 38.75 88.1875 C36.31502755 89.65367347 34.27764812 91.33351678 32.12109375 93.18359375 C17.32857719 105.68534168 -0.11313726 110.67697011 -19.25 109.1875 C-37.1046942 106.64052335 -52.8600024 97.63231749 -64.0625 83.4375 C-74.91078117 68.16451738 -79.14284732 52.23901311 -76.6875 33.6875 C-73.89175431 20.4321463 -66.08605084 8.8595607 -54.875 1.375 C-37.29874136 -9.16097701 -18.00249128 -10.17413522 0 0 Z " fill="#FEFDFD" transform="translate(124.25,51.8125)"/>
<path d="M0 0 C1.16982422 0.02255859 2.33964844 0.04511719 3.54492188 0.06835938 C6.42708769 0.12717909 9.30663681 0.20932859 12.1875 0.3125 C11.5275 2.6225 10.8675 4.9325 10.1875 7.3125 C3.2575 7.3125 -3.6725 7.3125 -10.8125 7.3125 C-10.8125 8.6325 -10.8125 9.9525 -10.8125 11.3125 C-8.95044922 11.33376953 -8.95044922 11.33376953 -7.05078125 11.35546875 C-5.40881757 11.402382 -3.76689163 11.45062932 -2.125 11.5 C-0.90006836 11.50870117 -0.90006836 11.50870117 0.34960938 11.51757812 C4.71206886 11.67653414 6.66894068 11.91560267 10.234375 14.64453125 C12.1875 17.3125 12.1875 17.3125 12.75 20.8125 C12.10627781 24.81788252 11.02804174 26.47195826 8.1875 29.3125 C5.57798764 30.61725618 3.66048715 30.42551572 0.7421875 30.41015625 C-0.87236328 30.40532227 -0.87236328 30.40532227 -2.51953125 30.40039062 C-3.64746094 30.39201172 -4.77539062 30.38363281 -5.9375 30.375 C-7.07316406 30.37048828 -8.20882812 30.36597656 -9.37890625 30.36132812 C-12.19015638 30.34951615 -15.0013023 30.33304507 -17.8125 30.3125 C-17.8125 28.0025 -17.8125 25.6925 -17.8125 23.3125 C-10.5525 22.9825 -3.2925 22.6525 4.1875 22.3125 C4.5175 21.3225 4.8475 20.3325 5.1875 19.3125 C3.32544922 19.29123047 3.32544922 19.29123047 1.42578125 19.26953125 C-0.21618243 19.222618 -1.85810837 19.17437068 -3.5 19.125 C-4.72493164 19.11629883 -4.72493164 19.11629883 -5.97460938 19.10742188 C-10.31442647 18.94929089 -12.295865 18.70312646 -15.85546875 16.01171875 C-18.49905396 12.36557628 -18.49905396 12.36557628 -18.4375 9.3125 C-18.45039063 8.673125 -18.46328125 8.03375 -18.4765625 7.375 C-15.60695815 -1.5376535 -7.73713204 -0.2817443 0 0 Z " fill="#FFFFFF" transform="translate(205.8125,236.6875)"/>
<path d="M0 0 C4.06212212 -0.14547545 8.12357287 -0.23413226 12.1875 -0.3125 C13.91323242 -0.3753418 13.91323242 -0.3753418 15.67382812 -0.43945312 C24.21782508 -0.56327917 24.21782508 -0.56327917 28.23828125 2.33203125 C30.28050199 5.42479569 31 7.28871423 31 11 C29.06851139 15.61411168 27.55460127 16.26723924 23 19 C24.65 22.63 26.3 26.26 28 30 C25.36 30 22.72 30 20 30 C18.02 26.37 16.04 22.74 14 19 C12.02 19.33 10.04 19.66 8 20 C7.67 23.3 7.34 26.6 7 30 C4.69 30 2.38 30 0 30 C-0.13637859 28.12706739 -0.23261351 26.25119131 -0.3125 24.375 C-0.37050781 23.33085937 -0.42851563 22.28671875 -0.48828125 21.2109375 C0.03081085 17.79738788 0.98483262 15.71961412 3.34448242 13.16943359 C6.53270309 10.91732078 10.02845612 11.11231251 13.8125 11.125 C14.60076172 11.104375 15.38902344 11.08375 16.20117188 11.0625 C18.13365908 11.01565183 20.06694972 11.00426251 22 11 C22.33 10.01 22.66 9.02 23 8 C11.615 7.505 11.615 7.505 0 7 C0 4.69 0 2.38 0 0 Z " fill="#FFFFFF" transform="translate(125,237)"/>
<path d="M0 0 C2.31 0 4.62 0 7 0 C7 3.96 7 7.92 7 12 C12.28 12 17.56 12 23 12 C23 8.04 23 4.08 23 0 C25.31 0 27.62 0 30 0 C30 9.9 30 19.8 30 30 C27.69 30 25.38 30 23 30 C23 26.04 23 22.08 23 18 C17.72 18 12.44 18 7 18 C7 21.96 7 25.92 7 30 C4.69 30 2.38 30 0 30 C0 20.1 0 10.2 0 0 Z " fill="#FFFFFF" transform="translate(63,237)"/>
<path d="M0 0 C3.3 0 6.6 0 10 0 C11.4304204 3.78795106 12.8543979 7.57825448 14.27246094 11.37084961 C14.75572265 12.66057458 15.24073669 13.94964438 15.72753906 15.23803711 C16.42713915 17.09054958 17.11991233 18.94563569 17.8125 20.80078125 C18.23144531 21.91622314 18.65039062 23.03166504 19.08203125 24.1809082 C20 27 20 27 20 30 C17.69 30 15.38 30 13 30 C11.68 27.36 10.36 24.72 9 22 C8.67 22.66 8.34 23.32 8 24 C5.03 24 2.06 24 -1 24 C-1.66 25.98 -2.32 27.96 -3 30 C-5.31 30 -7.62 30 -10 30 C-7.56721989 19.68964621 -3.74023328 9.88856195 0 0 Z M5 9 C2.7986134 12.80427492 2.7986134 12.80427492 2 17 C3.98 17 5.96 17 8 17 C7.34 14.36 6.68 11.72 6 9 C5.67 9 5.34 9 5 9 Z " fill="#FFFFFF" transform="translate(104,237)"/>
<path d="M0 0 C1.16982422 0.02255859 2.33964844 0.04511719 3.54492188 0.06835938 C6.42708769 0.12717909 9.30663681 0.20932859 12.1875 0.3125 C11.5275 2.6225 10.8675 4.9325 10.1875 7.3125 C3.2575 7.3125 -3.6725 7.3125 -10.8125 7.3125 C-10.8125 12.5925 -10.8125 17.8725 -10.8125 23.3125 C-3.2225 23.3125 4.3675 23.3125 12.1875 23.3125 C11.5275 25.6225 10.8675 27.9325 10.1875 30.3125 C6.45874612 30.45810195 2.73072566 30.54667043 -1 30.625 C-2.05509766 30.66689453 -3.11019531 30.70878906 -4.19726562 30.75195312 C-8.89898798 30.82611278 -11.90926699 30.84738158 -16.01171875 28.41796875 C-18.57025391 24.00574435 -18.54655647 20.32909757 -18.4375 15.3125 C-18.45683594 14.42304688 -18.47617187 13.53359375 -18.49609375 12.6171875 C-18.46507397 8.46053729 -18.12700894 5.87437553 -16.07421875 2.20703125 C-10.90596642 -0.79488777 -5.85315192 -0.21313999 0 0 Z " fill="#FFFFFF" transform="translate(49.8125,236.6875)"/>
<path d="M0 0 C10.23 0 20.46 0 31 0 C30.34 1.98 29.68 3.96 29 6 C21.74 6 14.48 6 7 6 C7.33 7.32 7.66 8.64 8 10 C15.59 10.33 23.18 10.66 31 11 C30.34 13.31 29.68 15.62 29 18 C25.27109745 18.1164862 21.54266486 18.18734576 17.8125 18.25 C16.22985352 18.30027344 16.22985352 18.30027344 14.61523438 18.3515625 C6.78242429 18.45039922 6.78242429 18.45039922 2.82421875 16.171875 C-1.51641944 11.00400598 0 7.55085606 0 0 Z " fill="#FFFFFF" transform="translate(0,249)"/>
<path d="M0 0 C10.23 0 20.46 0 31 0 C30.34 2.31 29.68 4.62 29 7 C25.7 7 22.4 7 19 7 C19 14.59 19 22.18 19 30 C16.69 30 14.38 30 12 30 C12 22.41 12 14.82 12 7 C8.04 7 4.08 7 0 7 C0 4.69 0 2.38 0 0 Z " fill="#FFFFFF" transform="translate(156,237)"/>
<path d="M0 0 C10.23 0 20.46 0 31 0 C30.34 2.31 29.68 4.62 29 7 C19.43 7 9.86 7 0 7 C0 4.69 0 2.38 0 0 Z " fill="#FFFFFF" transform="translate(0,237)"/>
</svg>
